HIERARCHY
ROOT Hips
{
  OFFSET 5.72205e-005 65.662 3.42586
  CHANNELS 6 Xposition Yposition Zposition Zrotation Xrotation Yrotation
  JOINT Chest
  {
    OFFSET 0 8.7983 -4.7612
    CHANNELS 3 Zrotation Xrotation Yrotation
    JOINT Chest2
    {
      OFFSET 0 8.0291 0.4195
      CHANNELS 3 Zrotation Xrotation Yrotation
      JOINT Chest3
      {
        OFFSET 0 9.9351 -2.2114
        CHANNELS 3 Zrotation Xrotation Yrotation
        JOINT Neck
        {
          OFFSET 0 22.3885 -0.4656
          CHANNELS 3 Zrotation Xrotation Yrotation
          JOINT Head
          {
            OFFSET -0.0001 12.643 3.4389
            CHANNELS 3 Zrotation Xrotation Yrotation
            End Site
            {
              OFFSET 0.0001 17.6655 0.5274
            }
          }
        }
        JOINT LeftCollar
        {
          OFFSET 2.2603 21.606 7.4023
          CHANNELS 3 Zrotation Xrotation Yrotation
          JOINT LeftShoulder
          {
            OFFSET 13.5163 -1.1332 -5.0146
            CHANNELS 3 Zrotation Xrotation Yrotation
            JOINT LeftElbow
            {
              OFFSET -0.0995 -28.05 -0.2431
              CHANNELS 3 Zrotation Xrotation Yrotation
              JOINT LeftWrist
              {
                OFFSET 0.0679 -23.3996 -0.1402
                CHANNELS 3 Zrotation Xrotation Yrotation
                JOINT LeftFinger1
                {
                  OFFSET 0.7932 -9.069 2.5189
                  CHANNELS 3 Zrotation Xrotation Yrotation
                  JOINT LeftFinger11
                  {
                    OFFSET -0.8272 -3.3923 0.5977
                    CHANNELS 3 Zrotation Xrotation Yrotation
                    JOINT LeftFinger12
                    {
                      OFFSET -0.5649 -2.3158 0.4082
                      CHANNELS 3 Zrotation Xrotation Yrotation
                      End Site
                      {
                        OFFSET -0.4919 -1.6479 0.2673
                      }
                    }
                  }
                }
                JOINT LeftFinger2
                {
                  OFFSET 0.9159 -9.2044 0.2193
                  CHANNELS 3 Zrotation Xrotation Yrotation
                  JOINT LeftFinger21
                  {
                    OFFSET 0.0117 -4.1944 -0.0248
                    CHANNELS 3 Zrotation Xrotation Yrotation
                    JOINT LeftFinger22
                    {
                      OFFSET 0.0071 -2.3249 -0.0142
                      CHANNELS 3 Zrotation Xrotation Yrotation
                      End Site
                      {
                        OFFSET -0.1475 -2.0882 0.0028
                      }
                    }
                  }
                }
                JOINT LeftFinger3
                {
                  OFFSET 0.6113 -8.7231 -2.0637
                  CHANNELS 3 Zrotation Xrotation Yrotation
                  JOINT LeftFinger31
                  {
                    OFFSET -0.1927 -3.8059 -0.2383
                    CHANNELS 3 Zrotation Xrotation Yrotation
                    JOINT LeftFinger32
                    {
                      OFFSET -0.1091 -2.1688 -0.1362
                      CHANNELS 3 Zrotation Xrotation Yrotation
                      End Site
                      {
                        OFFSET -0.2358 -1.9176 -0.0906
                      }
                    }
                  }
                }
                JOINT LeftFinger4
                {
                  OFFSET -0.6151 -8.0947 -3.5641
                  CHANNELS 3 Zrotation Xrotation Yrotation
                  JOINT LeftFinger41
                  {
                    OFFSET -0.4882 -2.341 -0.6462
                    CHANNELS 3 Zrotation Xrotation Yrotation
                    JOINT LeftFinger42
                    {
                      OFFSET -0.3575 -1.7167 -0.4742
                      CHANNELS 3 Zrotation Xrotation Yrotation
                      End Site
                      {
                        OFFSET -0.4187 -1.5237 -0.3496
                      }
                    }
                  }
                }
                JOINT LeftFinger0
                {
                  OFFSET -1.42 -1.8761 1.4223
                  CHANNELS 3 Zrotation Xrotation Yrotation
                  JOINT LeftFinger01
                  {
                    OFFSET -1.1471 -3.4929 2.6334
                    CHANNELS 3 Zrotation Xrotation Yrotation
                    JOINT LeftFinger02
                    {
                      OFFSET -0.823 -2.3 1.6571
                      CHANNELS 3 Zrotation Xrotation Yrotation
                      End Site
                      {
                        OFFSET -0.5822 -1.6914 1.1582
                      }
                    }
                  }
                }
              }
            }
          }
        }
        JOINT RightCollar
        {
          OFFSET -2.2603 21.606 7.4023
          CHANNELS 3 Zrotation Xrotation Yrotation
          JOINT RightShoulder
          {
            OFFSET -13.5187 -1.1334 -5.0155
            CHANNELS 3 Zrotation Xrotation Yrotation
            JOINT RightElbow
            {
              OFFSET 0.0994 -28.0499 -0.2431
              CHANNELS 3 Zrotation Xrotation Yrotation
              JOINT RightWrist
              {
                OFFSET -0.0679 -23.3996 -0.1402
                CHANNELS 3 Zrotation Xrotation Yrotation
                JOINT RightFinger1
                {
                  OFFSET -0.7932 -9.0691 2.5189
                  CHANNELS 3 Zrotation Xrotation Yrotation
                  JOINT RightFinger11
                  {
                    OFFSET 0.8272 -3.3923 0.5977
                    CHANNELS 3 Zrotation Xrotation Yrotation
                    JOINT RightFinger12
                    {
                      OFFSET 0.565 -2.3158 0.4082
                      CHANNELS 3 Zrotation Xrotation Yrotation
                      End Site
                      {
                        OFFSET 0.4919 -1.6479 0.2673
                      }
                    }
                  }
                }
                JOINT RightFinger2
                {
                  OFFSET -0.916 -9.2044 0.2193
                  CHANNELS 3 Zrotation Xrotation Yrotation
                  JOINT RightFinger21
                  {
                    OFFSET -0.0117 -4.1944 -0.0248
                    CHANNELS 3 Zrotation Xrotation Yrotation
                    JOINT RightFinger22
                    {
                      OFFSET -0.0071 -2.3249 -0.0142
                      CHANNELS 3 Zrotation Xrotation Yrotation
                      End Site
                      {
                        OFFSET 0.1475 -2.0882 0.0028
                      }
                    }
                  }
                }
                JOINT RightFinger3
                {
                  OFFSET -0.6113 -8.7231 -2.0637
                  CHANNELS 3 Zrotation Xrotation Yrotation
                  JOINT RightFinger31
                  {
                    OFFSET 0.1927 -3.8059 -0.2383
                    CHANNELS 3 Zrotation Xrotation Yrotation
                    JOINT RightFinger32
                    {
                      OFFSET 0.1091 -2.1688 -0.1362
                      CHANNELS 3 Zrotation Xrotation Yrotation
                      End Site
                      {
                        OFFSET 0.2358 -1.9176 -0.0906
                      }
                    }
                  }
                }
                JOINT RightFinger4
                {
                  OFFSET 0.6151 -8.0947 -3.564
                  CHANNELS 3 Zrotation Xrotation Yrotation
                  JOINT RightFinger41
                  {
                    OFFSET 0.4882 -2.341 -0.6462
                    CHANNELS 3 Zrotation Xrotation Yrotation
                    JOINT RightFinger42
                    {
                      OFFSET 0.3574 -1.7166 -0.4742
                      CHANNELS 3 Zrotation Xrotation Yrotation
                      End Site
                      {
                        OFFSET 0.4187 -1.5237 -0.3496
                      }
                    }
                  }
                }
                JOINT RightFinger0
                {
                  OFFSET 1.4199 -1.8761 1.4221
                  CHANNELS 3 Zrotation Xrotation Yrotation
                  JOINT RightFinger01
                  {
                    OFFSET 1.1472 -3.4929 2.6336
                    CHANNELS 3 Zrotation Xrotation Yrotation
                    JOINT RightFinger02
                    {
                      OFFSET 0.8229 -2.3 1.6571
                      CHANNELS 3 Zrotation Xrotation Yrotation
                      End Site
                      {
                        OFFSET 0.5822 -1.6914 1.1582
                      }
                    }
                  }
                }
              }
            }
          }
        }
      }
    }
  }
  JOINT RightHip
  {
    OFFSET -9.412 3.9771 -0.7758
    CHANNELS 3 Zrotation Xrotation Yrotation
    JOINT RightKnee
    {
      OFFSET -0.7531 -40.938 0
      CHANNELS 3 Zrotation Xrotation Yrotation
      JOINT RightAnkle
      {
        OFFSET 0 -40.1986 0
        CHANNELS 3 Zrotation Xrotation Yrotation
        JOINT RightToe
        {
          OFFSET 0 -4.4182 9.239
          CHANNELS 3 Zrotation Xrotation Yrotation
          End Site
          {
            OFFSET 0 0 6.1981
          }
        }
      }
    }
  }
  JOINT LeftHip
  {
    OFFSET 9.4119 3.9773 -0.7758
    CHANNELS 3 Zrotation Xrotation Yrotation
    JOINT LeftKnee
    {
      OFFSET 0.7532 -40.9383 0
      CHANNELS 3 Zrotation Xrotation Yrotation
      JOINT LeftAnkle
      {
        OFFSET 0 -40.1986 0
        CHANNELS 3 Zrotation Xrotation Yrotation
        JOINT LeftToe
        {
          OFFSET 0 -4.4182 9.239
          CHANNELS 3 Zrotation Xrotation Yrotation
          End Site
          {
            OFFSET 0 0 6.1981
          }
        }
      }
    }
  }
}
MOTION
Frames:	4
Frame Time:	0.0333333
5.72205e-005 65.662 3.42586 0 0 -0 0 0 -0 0 0 -0 0 0 -0 0 0 -0 0 0 -0 0 0 -12.5014 88.1196 14.2451 10.6914 -0.00160068 -0.00239207 0.000740045 -8.4365e-005 7.00714e-005 -9.52055e-007 9.93923e-017 -1.98785e-016 -1.59028e-015 9.93923e-017 -5.96354e-016 -1.59028e-015 -9.93923e-017 -5.96354e-016 -1.59028e-015 9.93923e-017 -1.98785e-016 -1.59028e-015 -0.0128176 0.00232552 8.52707e-005 9.93923e-017 5.96354e-016 -0 9.93923e-017 -1.98785e-016 -1.59028e-015 -0.0160551 0.00299681 0.000857156 -2.48481e-016 0 3.18055e-015 9.93923e-017 -1.98785e-016 -1.59028e-015 -0.0125865 0.0031206 0.00282719 0 1.98785e-016 -0 9.93923e-017 -1.98785e-016 -1.59028e-015 9.93923e-017 -5.96354e-016 -1.59028e-015 -9.93923e-017 -5.96354e-016 -1.59028e-015 -0.865644 0.16582 7.03859 -88.0329 10.2057 -10.5567 0.0015593 -0.00248883 -0.000788628 7.87605e-005 4.10553e-005 1.24965e-005 -3.97569e-016 -7.95139e-016 3.18055e-015 -1.98785e-016 -3.97569e-016 3.18055e-015 -1.98785e-016 0 3.18055e-015 -3.97569e-016 -7.95139e-016 3.18055e-015 0.0129473 0.00231697 -8.70038e-005 9.93923e-017 -7.95139e-016 1.59028e-015 -3.97569e-016 -7.95139e-016 3.18055e-015 0.0163314 0.00303369 -0.000872333 3.97569e-016 7.95139e-016 -3.18055e-015 -3.97569e-016 -7.95139e-016 3.18055e-015 0.0145763 0.00367772 -0.00326275 9.93923e-017 -3.97569e-016 -0 -3.97569e-016 -7.95139e-016 3.18055e-015 -1.98785e-016 -3.97569e-016 3.18055e-015 -1.98785e-016 0 3.18055e-015 3.42482 1.32465 -0.0626183 0.000117508 0.717283 0.000978199 -3.4257 -2.04197 -0.0604716 6.47761e-025 0 -0 -3.42483 1.34017 0.0627307 -0.000193936 0.682302 -0.0013703 3.42574 -2.02253 0.0595886 -8.45714e-024 0 -7.40531e-025 
4.06406 42.3427 -14.0376 2.56291e-008 16.5408 -1.04936e-008 0.447145 4.71377 -0.142644 0.910761 9.42626 -0.323995 0.910761 9.42628 -0.323996 0.0808388 -0.425353 -0.0155495 0.0082573 -0.479882 -0.00395768 -5.64285 -4.91754 -19.6968 65.6499 -11.2945 8.71013 -1.80973 -15.8224 8.89411 3.77165 1.9538 19.9296 2.93241e-007 -1.5379e-006 8.01297e-007 -3.18055e-015 6.36111e-015 1.98785e-015 -3.77691e-015 9.54166e-015 -2.38542e-015 2.93241e-007 -1.5379e-006 8.01297e-007 -0.0127525 0.0023156 8.80364e-005 -2.18663e-014 3.18055e-015 7.95139e-015 2.93241e-007 -1.5379e-006 8.01297e-007 -0.0159811 0.00298545 0.000857636 6.55046e-006 -4.1046e-006 -2.84263e-006 2.93241e-007 -1.5379e-006 8.01297e-007 -0.0125941 0.00312501 0.00283069 1.09332e-015 -3.18055e-015 2.78299e-015 2.93241e-007 -1.5379e-006 8.01297e-007 -3.18055e-015 6.36111e-015 1.98785e-015 -3.77691e-015 9.54166e-015 -2.38542e-015 -0.0485762 -6.30331 14.742 -68.4386 -20.0902 -8.7061 2.41645 -17.3038 -9.02832 -7.31332 2.93396 -19.7906 -5.06901e-015 0 -1.19271e-015 -6.65929e-015 3.18055e-015 -1.39149e-015 1.63003e-014 9.54166e-015 -3.37934e-015 -5.06901e-015 0 -1.19271e-015 0.0129432 0.0023164 -8.5358e-005 -8.26999e-006 1.50475e-006 -1.20926e-006 -5.06901e-015 0 -1.19271e-015 0.0163016 0.00303199 -0.000872319 -4.0123e-007 -4.63165e-007 -7.53531e-007 -5.06901e-015 0 -1.19271e-015 0.0146462 0.00369307 -0.0032779 2.78299e-015 6.36111e-015 2.18663e-015 -5.06901e-015 0 -1.19271e-015 -6.65929e-015 3.18055e-015 -1.39149e-015 1.63003e-014 9.54166e-015 -3.37934e-015 -6.7221 -27.9075 -1.61199 0.802646 65.3334 0.526656 -4.10951 19.1348 4.89976 1.6279e-006 -1.50704e-005 -4.88308e-007 15.284 -25.0103 -0.0306532 -1.49931 58.4208 -0.543196 0.587357 23.1126 -12.3426 4.19842e-006 2.3153e-005 -3.43193e-007 
7.73124 22.3738 -29.4931 -5.14113e-007 31.1665 5.42045e-007 0.861154 8.87799 -0.415222 1.82179 17.7483 -0.985472 1.8218 17.7484 -0.985477 0.161716 -0.850572 -0.0291402 0.0165357 -0.959513 -0.00765408 -11.6532 -9.08142 -26.1926 49.6786 -35.1939 8.09292 -3.92508 -29.7684 15.7713 7.29392 3.51939 37.5973 1.59028e-015 0 -0 -2.79043e-007 -1.71247e-006 -8.88872e-007 3.99e-008 5.00364e-007 1.6565e-006 1.59028e-015 0 -0 -0.0128266 0.00232209 8.88359e-005 1.05541e-007 8.45971e-007 -1.56708e-008 1.59028e-015 0 -0 -0.0160702 0.00299741 0.000862333 3.97569e-016 0 -6.36111e-015 1.59028e-015 0 -0 -0.0125535 0.00311283 0.00282243 3.97569e-016 -1.59028e-015 -0 1.59028e-015 0 -0 -2.79043e-007 -1.71247e-006 -8.88872e-007 3.99e-008 5.00364e-007 1.6565e-006 2.1157 -11.7473 21.7811 -54.0774 -47.4691 -8.77115 5.25561 -32.5902 -15.6671 -13.8666 5.31718 -37.486 5.31887e-007 9.62089e-008 3.35829e-006 -8.82781e-032 3.18055e-015 1.59028e-015 -7.95139e-016 6.36111e-015 -0 5.31887e-007 9.62089e-008 3.35829e-006 0.0129418 0.00231346 -8.73761e-005 -1.86418e-007 -3.87632e-006 -1.8297e-006 5.31887e-007 9.62089e-008 3.35829e-006 0.0163324 0.0030326 -0.000879012 -7.95139e-016 0 -0 5.31887e-007 9.62089e-008 3.35829e-006 0.0146003 0.00368258 -0.00326707 0 0 -1.59028e-015 5.31887e-007 9.62089e-008 3.35829e-006 -8.82781e-032 3.18055e-015 1.59028e-015 -7.95139e-016 6.36111e-015 -0 -17.5285 -52.604 -4.54949 -173.263 59.9881 174.368 -9.4648 38.7733 11.4719 2.38542e-015 3.18055e-015 2.38542e-015 32.0089 -47.8766 -0.16816 168.995 73.3219 -171.225 13.3337 43.6357 -32.5301 -1.61212e-007 3.62262e-008 1.39543e-007 
9.1331 15.2576 -35.0676 -6.55066e-007 36.4959 5.94495e-007 1.01619 10.4008 -0.549529 2.1914 20.7895 -1.32382 2.19139 20.7895 -1.32382 0.243838 -1.27441 -0.0333423 0.0251835 -1.43775 -0.0100859 -14.027 -10.536 -28.6584 45.5828 -44.154 8.85712 -4.938 -34.8194 17.9582 8.62789 3.90838 44.0349 -2.17112e-006 1.28672e-006 2.87506e-006 2.38542e-015 0 -9.54166e-015 -7.95139e-016 0 -0 -2.17112e-006 1.28672e-006 2.87506e-006 -0.0128226 0.0023281 9.01518e-005 3.21632e-006 -3.39178e-006 -7.22934e-006 -2.17112e-006 1.28672e-006 2.87506e-006 -0.0160502 0.00299785 0.000858617 -3.97569e-016 0 -3.18055e-015 -2.17112e-006 1.28672e-006 2.87506e-006 -0.012602 0.00312836 0.00283203 3.21638e-006 -4.10148e-007 -7.22982e-006 -2.17112e-006 1.28672e-006 2.87506e-006 2.38542e-015 0 -9.54166e-015 -7.95139e-016 0 -0 3.15807 -13.639 24.4343 -50.8657 -57.6063 -10.3364 6.64546 -38.1336 -17.6244 -16.3871 6.17475 -43.9373 3.18055e-015 -3.18055e-015 3.18055e-015 -1.59028e-015 -6.36111e-015 3.18055e-015 -1.59028e-015 -6.36111e-015 3.18055e-015 3.18055e-015 -3.18055e-015 3.18055e-015 0.01293 0.00231826 -7.87665e-005 -5.29669e-031 -3.18055e-015 -9.54166e-015 3.18055e-015 -3.18055e-015 3.18055e-015 0.0163158 0.0030309 -0.000868251 -3.18055e-015 3.18055e-015 1.59028e-014 3.18055e-015 -3.18055e-015 3.18055e-015 0.0145805 0.003677 -0.00325996 -1.59028e-015 -6.36111e-015 -9.54166e-015 3.18055e-015 -3.18055e-015 3.18055e-015 -1.59028e-015 -6.36111e-015 3.18055e-015 -1.59028e-015 -6.36111e-015 3.18055e-015 -23.2473 -61.2478 -7.00879 -174.228 40.6058 174.711 -13.7422 45.7375 15.5354 -7.95139e-016 1.6448e-006 -3.18055e-015 38.389 -56.3159 -0.282362 171.438 56.4721 -173.354 24.2126 49.009 -44.7779 8.07588e-007 4.74878e-006 -2.65344e-007 
